<svg xmlns="http://www.w3.org/2000/svg" viewBox="0 0 169.13 227.56"><g id="Layer_2" data-name="Layer 2"><g id="Layer_1-2" data-name="Layer 1"><path d="M27.47,70.85a71.86,71.86,0,0,0,44.78-5.31l-2.2-.89a201,201,0,0,1,6.81,38q.77,9.49.62,19c0,3.18-.16,6.35-.36,9.53-.17,2.62-.53,5.36-3,6.81-2.18,1.28-4.87,1.43-7.33,1.58a84.82,84.82,0,0,1-9,0,83.5,83.5,0,0,1-17.84-2.86,79.86,79.86,0,0,1-16.53-6.49,41.26,41.26,0,0,1-12.8-9.94c-3.68-4.52-5.37-10.1-6.21-15.79A152.7,152.7,0,0,1,3.07,86.09,220.31,220.31,0,0,1,5.4,47.94Q6.8,38.61,9,29.42a134,134,0,0,1,5-17.61A11.21,11.21,0,0,1,18.44,5.9c2.47-1.45,5.48-1.64,8.27-1.9,6.33-.6,12.69-1,19-1,22.76-.07,46.86,5.11,63.67,21.48a60.68,60.68,0,0,1,5.31,5.91l1.06-2.56A59.07,59.07,0,0,0,83,38.14,60.78,60.78,0,0,0,70.19,49.71C66.52,54.18,63,59.42,61.24,65A9,9,0,0,0,62,72.75a12.28,12.28,0,0,0,5.59,4.33c4.77,2,9.91,1.75,14.83,3.11a13.06,13.06,0,0,1,6.07,3.16,5.93,5.93,0,0,1,.74,7c-1.48,2.89-4.08,5.17-6.37,7.41q-3.67,3.6-7.54,7A185.8,185.8,0,0,1,37,130.64l2,2.05c6.74-9.23,17.07-14.73,27.42-19,10.92-4.47,22.33-7.87,32.77-13.44a59.41,59.41,0,0,0,15.47-11.51l-2.56-1.06q1.23,27,1.82,54t.49,54q0,15.18-.3,30.37c0,1.93,3,1.93,3,0q.45-27,.25-54t-1.08-54q-.48-15.18-1.18-30.35a1.52,1.52,0,0,0-2.56-1.06c-8,8.56-18.91,13.46-29.68,17.6-10.93,4.21-22.32,7.77-32.31,14a50.37,50.37,0,0,0-14.14,12.91c-.95,1.31.84,2.66,2.05,2a189.06,189.06,0,0,0,34.33-22.39,180,180,0,0,0,15-13.72c2.13-2.19,4.33-4.73,5.06-7.79a8.66,8.66,0,0,0-1.42-7.16c-3-4-8.66-5.28-13.4-5.85-4.39-.52-10.15-1-13.15-4.73-1.84-2.32-1.13-5.13,0-7.62a53.17,53.17,0,0,1,4-7.42A57.23,57.23,0,0,1,115.8,30.83a1.52,1.52,0,0,0,1.06-2.56c-15-19-39.56-26.9-63-28.08A175.57,175.57,0,0,0,33.6.44c-3.3.22-6.61.45-9.89.87a16.14,16.14,0,0,0-7.93,2.78c-4.47,3.45-5.74,9.83-7.2,15Q5.81,28.8,3.92,38.77A226,226,0,0,0,0,78.54q-.09,9.92.7,19.79c.51,6.3,1.29,12.7,4.06,18.46,5.06,10.52,16.38,16.55,26.84,20.49a84.1,84.1,0,0,0,37.23,5.2,14.94,14.94,0,0,0,7.51-2.3c2.3-1.66,3.26-4.18,3.59-6.91a135.68,135.68,0,0,0,.5-19.65,204.74,204.74,0,0,0-5-40.07q-1.11-4.87-2.47-9.7a1.53,1.53,0,0,0-2.2-.9,68.4,68.4,0,0,1-42.47,5c-1.89-.39-2.7,2.51-.8,2.89Z"/><path d="M111.51,64.78a2.91,2.91,0,0,0,3.06,3.38c2,0,3.25-1.86,3.53-3.7a35.49,35.49,0,0,0,.2-6.6,70.63,70.63,0,0,0-.63-7.26,1.51,1.51,0,0,0-1.84-1,6.13,6.13,0,0,0-4.55,5.55,1.5,1.5,0,0,0,1.5,1.5,1.54,1.54,0,0,0,1.5-1.5,3.08,3.08,0,0,1,2.34-2.66l-1.84-1.05a64.91,64.91,0,0,1,.54,9.75c0,1.11.13,2.59-.4,3.62a1.74,1.74,0,0,1-.26.37s-.09,0-.14,0l-.2,0c-.23-.07.05,0,0,0s-.07-.1,0,0c.09.23.17,0,.1.49a1.55,1.55,0,0,0-1.05-1.85,1.51,1.51,0,0,0-1.84,1.05Z"/><path d="M61.76,161.25c27.72-.49,55.46,1.24,83.16-.3,7.73-.43,15.44-1.13,23.12-2.18a1.5,1.5,0,0,0,1-1.84,1.53,1.53,0,0,0-1.84-1.05C140,159.59,112.4,158.55,85,158.23c-7.74-.09-15.48-.12-23.22,0-1.93,0-1.94,3,0,3Z"/></g></g></svg>